<svg width="24" height="25" viewBox="0 0 24 25" fill="none" xmlns="http://www.w3.org/2000/svg">
<circle cx="12" cy="12.7002" r="12" fill="white"/>
<mask id="mask0_6_214" style="mask-type:luminance" maskUnits="userSpaceOnUse" x="3" y="3" width="18" height="19">
<rect x="3" y="3.7002" width="18" height="18" fill="white"/>
</mask>
<g mask="url(#mask0_6_214)">
<path fill-rule="evenodd" clip-rule="evenodd" d="M19.3541 11.2313H18.75V11.2002H12V14.2002H16.2386C15.6203 15.9466 13.9586 17.2002 12 17.2002C9.51488 17.2002 7.5 15.1853 7.5 12.7002C7.5 10.2151 9.51488 8.2002 12 8.2002C13.1471 8.2002 14.1908 8.63295 14.9854 9.33982L17.1067 7.21845C15.7673 5.97007 13.9755 5.2002 12 5.2002C7.85813 5.2002 4.5 8.55832 4.5 12.7002C4.5 16.8421 7.85813 20.2002 12 20.2002C16.1419 20.2002 19.5 16.8421 19.5 12.7002C19.5 12.1973 19.4482 11.7064 19.3541 11.2313Z" fill="#FFC107"/>
<path fill-rule="evenodd" clip-rule="evenodd" d="M5.36475 9.20932L7.82887 11.0164C8.49562 9.36569 10.1104 8.2002 12 8.2002C13.1471 8.2002 14.1907 8.63295 14.9854 9.33982L17.1067 7.21845C15.7672 5.97007 13.9755 5.2002 12 5.2002C9.11925 5.2002 6.621 6.82657 5.36475 9.20932Z" fill="#FF3D00"/>
<path fill-rule="evenodd" clip-rule="evenodd" d="M11.9999 20.2005C13.9371 20.2005 15.6974 19.4591 17.0282 18.2535L14.707 16.2892C13.954 16.8596 13.018 17.2005 11.9999 17.2005C10.0491 17.2005 8.39275 15.9566 7.76875 14.2207L5.323 16.1051C6.56425 18.534 9.085 20.2005 11.9999 20.2005Z" fill="#4CAF50"/>
<path fill-rule="evenodd" clip-rule="evenodd" d="M19.3541 11.2313H18.75V11.2002H12V14.2002H16.2386C15.9416 15.0391 15.402 15.7624 14.706 16.2893C14.7064 16.2889 14.7068 16.2889 14.7071 16.2886L17.0284 18.2528C16.8641 18.4021 19.5 16.4502 19.5 12.7002C19.5 12.1973 19.4482 11.7064 19.3541 11.2313Z" fill="#1976D2"/>
</g>
</svg>
