<svg width="16" height="16" viewBox="0 0 16 16" fill="none" xmlns="http://www.w3.org/2000/svg">
<g id="gis:location-poi">
<path id="Vector" d="M7.99844 0C5.38228 0 3.23828 2.1376 3.23828 4.74656C3.23828 5.75744 3.56116 6.69696 4.10756 7.46912L7.41748 13.1912C7.881 13.7968 8.18916 13.6818 8.5746 13.1592L12.2255 6.9464C12.2991 6.81296 12.357 6.67088 12.4074 6.52576C12.6391 5.9612 12.7582 5.35681 12.7581 4.74656C12.7583 2.1376 10.6149 0 7.99844 0ZM7.99844 2.224C9.4074 2.224 10.5277 3.34176 10.5277 4.74656C10.5277 6.15136 9.4074 7.26864 7.99844 7.26864C6.58964 7.26864 5.46884 6.15152 5.46884 4.74656C5.46884 3.34176 6.58964 2.22416 7.99844 2.22416V2.224Z" fill="#888D93"/>
<path id="Vector_2" d="M11.0237 7.8252L11.0161 7.84536C11.0185 7.83928 11.0204 7.83303 11.0228 7.82695L11.0237 7.8252ZM5.43862 11.049C3.17846 11.3684 1.59766 12.1324 1.59766 13.257C1.59766 14.7719 4.23894 15.9999 7.99766 15.9999C11.7564 15.9999 14.3977 14.7719 14.3977 13.257C14.3977 12.1324 12.817 11.3684 10.557 11.049L10.2439 11.5822C11.9473 11.8185 13.1177 12.3151 13.1177 12.8914C13.1177 13.6994 10.8253 14.3543 7.99766 14.3543C5.16998 14.3543 2.87766 13.6994 2.87766 12.8914C2.8775 12.317 4.04022 11.8209 5.74886 11.5836C5.64566 11.4054 5.54198 11.2274 5.43862 11.049Z" fill="#888D93"/>
</g>
</svg>
