<svg width="250" height="205" viewBox="0 0 250 205" fill="none" xmlns="http://www.w3.org/2000/svg">
<path fill-rule="evenodd" clip-rule="evenodd" d="M59.8373 142.288L52.2142 111.714C50.1092 103.271 51.2974 95.32 55.779 87.8615C60.2605 80.4029 66.7227 75.6211 75.1656 73.5161L193.641 43.9767C202.084 41.8717 210.035 43.0599 217.494 47.5415C224.952 52.023 229.734 58.4852 231.839 66.9281L248.991 135.721C251.096 144.163 249.908 152.114 245.426 159.573C240.945 167.031 234.482 171.813 226.039 173.918L107.564 203.457C99.1207 205.562 91.17 204.374 83.7115 199.893C76.2529 195.411 71.4712 188.949 69.3661 180.506L59.8373 142.288Z" fill="#4CAF50"/>
<g style="mix-blend-mode:multiply">
<path fill-rule="evenodd" clip-rule="evenodd" d="M8.63221 99.3204L1.00915 68.746C-1.0959 60.3031 0.0923414 52.3524 4.57387 44.8939C9.0554 37.4353 15.5176 32.6535 23.9605 30.5485L142.436 1.00915C150.879 -1.0959 158.83 0.092343 166.288 4.57388C173.747 9.0554 178.529 15.5176 180.634 23.9605L197.786 92.753C199.891 101.196 198.703 109.147 194.221 116.605C189.739 124.064 183.277 128.845 174.834 130.95L56.3585 160.49C47.9156 162.595 39.9649 161.407 32.5064 156.925C25.0479 152.444 20.2661 145.981 18.161 137.538L8.63221 99.3204Z" fill="#4CAF50"/>
</g>
</svg>
